<svg viewBox="0 0 708 444" fill="none" xmlns="http://www.w3.org/2000/svg">
<g opacity="0.345889">
<path fill-rule="evenodd" clip-rule="evenodd" d="M502.794 249.385C495.899 172.336 125.964 23.624 57.2873 96.6031C-11.3897 169.582 54.6347 306.545 198.556 341.617C342.478 376.69 509.688 326.434 502.794 249.385Z" fill="#F2F2F2"/>
<path fill-rule="evenodd" clip-rule="evenodd" d="M274.144 299.448C280.32 233.992 611.692 107.655 673.21 169.654C734.728 231.652 719.157 362.059 590.238 391.854C461.319 421.65 267.968 364.904 274.144 299.448Z" fill="#DDE3E9"/>
</g>
<path d="M585 67.2356L603.568 48.6604C606.692 45.5346 611.759 45.5346 614.884 48.6604L664.316 98.1131C667.315 101.114 669 105.182 669 109.424V437" stroke="#CBCBCB" stroke-width="8"/>
<rect x="639" y="436" width="59" height="7" rx="3" fill="#AFB9C5"/>
<path d="M549.499 56.3345C562.386 43.4472 583.28 43.4472 596.168 56.3345C609.055 69.2218 609.055 90.1163 596.168 103.004L576.369 122.803L529.7 76.1335L549.499 56.3345Z" fill="#C5CFD6"/>
<path fill-rule="evenodd" clip-rule="evenodd" d="M549.228 103.527C562.115 116.414 574.62 124.804 577.159 122.265C579.697 119.727 571.308 107.222 558.42 94.3345C545.533 81.4472 533.028 73.0578 530.489 75.5962C527.951 78.1346 536.341 90.6396 549.228 103.527Z" fill="#F2F2F2"/>
<path fill-rule="evenodd" clip-rule="evenodd" d="M47.258 205.173C50.1225 204.823 53.1799 204.947 55.8439 206.077C61.5085 208.482 63.1187 215.174 63.041 220.614C62.9573 226.468 61.7141 232.863 66.1651 237.58C68.2112 239.748 70.7563 241.408 72.7654 243.617C74.9122 245.977 76.5966 248.677 77.8438 251.577C80.1339 256.903 81.2578 263.167 79.1637 268.754C77.3199 273.674 72.6811 278.114 73.6834 283.708C74.729 289.543 80.6122 294.004 84.2904 298.351C88.4532 303.269 92.2859 309.556 92.9155 316.006C93.5193 322.188 90.8284 328.44 86.6988 333.113C78.4477 342.451 66.0452 347.028 53.5396 347C48.23 346.988 42.2186 346.748 37.6366 343.895C36.2204 343.013 35.4733 342.023 34.6315 340.648C33.8767 339.414 32.8796 338.612 31.7255 337.739C29.1899 335.822 27.3587 333.239 26.1901 330.347C21.6522 319.114 25.2792 305.218 31.6312 295.243C33.1364 292.88 34.3686 290.605 33.6374 287.789C32.8744 284.848 30.999 282.196 29.3403 279.669C27.7011 277.17 25.8299 274.787 24.5488 272.087C23.207 269.257 22.8292 266.294 23.0662 263.198C23.5118 257.381 26.0227 252.013 29.5777 247.336C33.0017 242.83 37.0221 238.518 37.0311 232.615C37.041 226.357 32.8577 220.791 34.6399 214.429C35.3778 211.795 36.86 209.092 39.2486 207.513C41.5393 205.998 44.5639 205.502 47.258 205.173Z" fill="#DDE3E9"/>
<path fill-rule="evenodd" clip-rule="evenodd" d="M45.3862 215.176C45.4399 214.336 46.4367 213.832 47.2215 214.051C48.2545 214.34 48.2346 215.305 48.2073 216.165C48.1237 218.808 48.5063 221.377 49.1417 223.942C50.4622 229.274 52.9027 234.186 54.8362 239.308C56.768 244.425 57.6748 249.709 56.5416 255.124C55.4732 260.23 53.7948 265.203 52.7015 270.315C51.7378 274.821 50.7123 279.573 52.1799 284.067C53.5921 288.393 56.7142 291.916 58.9625 295.825C63.6165 303.918 65.6813 312.896 65.9574 322.135C66.0854 326.425 65.9702 330.755 64.9749 334.963C64.402 337.386 63.6322 340.66 61.5559 342.333C60.5985 343.105 58.961 343.371 58.1552 342.229C57.3987 341.158 58.0624 339.499 58.3025 338.357C59.3427 333.413 59.5519 328.361 59.3029 323.342C59.0619 318.48 58.4874 313.626 56.9572 308.982C55.5369 304.673 53.3792 300.802 50.8398 297.032C48.2521 293.191 45.562 289.341 44.4928 284.789C43.4065 280.166 44.289 275.462 45.4691 270.927C46.7171 266.131 48.3518 261.472 50.0417 256.805C51.6886 252.258 52.2724 247.955 51.3632 243.196C49.5672 233.794 44.7598 224.968 45.3862 215.176Z" fill="#C5CFD6"/>
<path fill-rule="evenodd" clip-rule="evenodd" d="M122.892 216.582C126.437 217.659 129.958 219.395 132.485 222.118C137.858 227.909 136.209 236.661 133.243 243.053C130.05 249.933 125.212 256.849 127.94 264.743C129.193 268.372 131.301 271.659 132.49 275.316C133.761 279.224 134.309 283.294 134.239 287.372C134.11 294.862 132.118 302.855 126.708 308.373C121.945 313.232 114.158 316.07 112.377 323.206C110.518 330.651 115.061 338.988 117.078 346.041C119.36 354.024 120.533 363.453 117.862 371.409C115.303 379.034 108.842 385.028 101.528 388.406C86.9152 395.156 69.9487 394.117 55.2958 387.578C49.0748 384.801 42.1506 381.391 38.2845 375.633C37.0897 373.853 36.7364 372.294 36.476 370.23C36.2426 368.378 35.4972 366.911 34.6048 365.278C32.644 361.692 31.8618 357.684 32.0198 353.656C32.6345 338.011 44.2336 323.464 56.9562 314.972C59.9708 312.96 62.6181 310.912 63.2494 307.2C63.9086 303.325 63.1108 299.213 62.5012 295.361C61.899 291.554 60.9638 287.763 60.8888 283.902C60.8105 279.858 61.9334 276.157 63.8482 272.619C67.4453 265.972 73.2275 260.93 79.8696 257.247C86.2673 253.7 93.2616 250.692 96.3928 243.715C99.7118 236.32 97.7474 227.561 103.2 220.964C105.458 218.233 108.625 215.807 112.262 215.182C115.749 214.583 119.558 215.57 122.892 216.582Z" fill="#DDE3E9"/>
<path fill-rule="evenodd" clip-rule="evenodd" d="M115.651 228.811C116.154 227.844 117.584 227.769 118.387 228.44C119.443 229.324 118.914 230.456 118.432 231.46C116.95 234.547 116.052 237.789 115.452 241.159C114.204 248.166 114.485 255.262 114.063 262.341C113.642 269.414 111.935 276.147 107.774 281.965C103.85 287.452 99.2832 292.462 95.3274 297.943C91.8408 302.773 88.1533 307.863 87.5156 313.954C86.9012 319.817 88.7069 325.626 89.2882 331.434C90.4919 343.457 88.2042 355.171 83.6884 366.257C81.5911 371.405 79.1887 376.472 75.8211 380.933C73.8824 383.503 71.2673 386.977 67.9634 387.869C66.4399 388.281 64.3855 387.739 64.0415 385.964C63.7181 384.298 65.3628 382.682 66.2417 381.455C70.047 376.146 72.9376 370.273 75.2753 364.198C77.5399 358.314 79.4103 352.265 80.0529 345.963C80.6491 340.116 80.1532 334.401 79.1581 328.606C78.1443 322.701 77.0149 316.731 78.1486 310.781C79.2996 304.736 82.7953 299.628 86.5501 294.876C90.5215 289.85 94.8729 285.19 99.293 280.549C103.6 276.027 106.536 271.238 107.966 265.126C110.79 253.049 109.791 240.078 115.651 228.811Z" fill="#C5CFD6"/>
<path fill-rule="evenodd" clip-rule="evenodd" d="M13.306 261C19.2003 261 24.3823 264.124 27.9531 268.558C32.133 273.748 32.9772 280.086 34.6745 286.272C35.5191 289.35 36.9717 292.406 39.5174 294.498C41.8327 296.4 44.7721 296.78 47.5435 297.71C53.0822 299.567 57.5547 304.041 59.321 309.499C61.4758 316.158 59.1934 322.873 59.5864 329.622C59.9472 335.819 66.0576 339.685 70.9738 342.656C75.8215 345.586 80.1886 348.328 81.6487 354.035C83.1969 360.088 83.7164 366.844 81.5719 372.823C78.0015 382.779 67.5525 387.163 57.4561 387.842C48.2932 388.459 36.7719 387.491 29.8907 380.84C25.773 376.86 24.2819 371.293 24.4669 365.755C24.5818 362.311 25.264 358.899 26.146 355.571C26.7711 353.213 27.6157 350.864 27.8563 348.427C28.4959 341.942 22.5026 340.697 17.401 338.916C10.9183 336.654 6.37987 332.38 3.22399 326.425C0.285002 320.881 -0.948134 314.658 0.813701 308.554C1.71353 305.437 3.3456 302.61 5.55902 300.205C6.53336 299.146 7.90665 298.263 8.78608 297.151C9.60694 296.112 9.42823 294.766 9.14534 293.55C7.83732 287.931 3.76196 283.278 2.30451 277.668C0.988698 272.605 1.76655 266.304 6.39544 263.038C8.3953 261.627 10.8616 261.016 13.306 261Z" fill="#C5CFD6"/>
<path fill-rule="evenodd" clip-rule="evenodd" d="M21.3377 275.641C27.585 282.296 29.2831 291.325 29.7815 300.076C30.0606 304.983 29.7701 310.159 31.2118 314.919C32.4454 318.993 35.3373 322.107 38.3183 325.051C44.3188 330.975 51.0108 336.999 52.7659 345.574C53.7957 350.606 53.1006 355.804 54.5236 360.78C55.8175 365.304 58.0956 369.748 60.8665 373.568C63.0975 376.645 66.0042 379 68.443 381.867C69.1871 382.743 70.2529 384.031 69.9458 385.267C69.5865 386.714 67.7431 387.172 66.4352 386.945C63.3859 386.415 60.8191 383.503 58.8253 381.386C55.9098 378.291 53.4323 374.962 51.4187 371.227C49.1832 367.08 47.3833 362.679 46.6142 358.026C45.8161 353.199 46.2133 348.168 44.3909 343.535C41.3242 335.74 33.886 331.14 28.5082 325.064C21.8077 317.494 22.807 308.072 23.4933 298.759C23.8703 293.641 24.2451 287.862 21.6591 283.189C20.672 281.406 18.4711 279.743 18.0467 277.715C17.6579 275.858 19.7797 273.981 21.3377 275.641Z" fill="#AFB9C5"/>
<path fill-rule="evenodd" clip-rule="evenodd" d="M28.0004 385C28.0004 423.058 34.2112 443 67.0001 443C99.789 443 106 423.058 106 385H28.0004Z" fill="#89C5CC"/>
<rect x="180" y="330" width="38" height="9" rx="2" fill="#AFB9C5"/>
<path fill-rule="evenodd" clip-rule="evenodd" d="M197.217 257H199H200H201.783C202.301 272.419 204.707 287.085 209 301H215.5C224.06 301 231 307.94 231 316.5C231 325.06 224.06 332 215.5 332H182.5C173.94 332 167 325.06 167 316.5C167 307.94 173.94 301 182.5 301H190C196.44 280.128 197.217 257 197.217 257Z" fill="#DDE3E9"/>
<path fill-rule="evenodd" clip-rule="evenodd" d="M163.622 187.679C163.622 187.679 180.811 186 198 186C215.189 186 232.378 187.679 232.378 187.679L237 267.133C237 267.133 217.5 269 198 269C178.5 269 159 267.133 159 267.133L163.622 187.679Z" fill="#C5CFD6"/>
<path fill-rule="evenodd" clip-rule="evenodd" d="M136 443V361V339H157H240H261V361V443H240V361H157V443H136Z" fill="#F2F2F2"/>
<path fill-rule="evenodd" clip-rule="evenodd" d="M554.381 161.208C563.214 182.197 578.229 196.781 586.182 218.605C590.898 231.547 592.864 245.62 592.983 260.032C593.048 267.86 592.911 275.694 592.875 283.522C592.839 291.156 592.632 298.741 591.984 306.327C591.332 313.952 590.603 321.487 590.282 329.159C590.031 335.137 589.917 342.091 587.891 347.544C586.279 351.881 582.183 352.516 581.097 347.256C580.493 344.333 580.569 341.068 580.636 338.063C580.721 334.208 580.945 330.359 581.06 326.504C581.519 311.036 580.923 295.566 581.235 280.092C581.539 264.973 583.482 249.871 581.332 234.853C579.556 222.452 575.046 211.802 569.862 201.593C564.874 191.771 559.445 182.187 556.075 171.014C555.107 167.806 554.359 164.481 554 161.03C554.157 160.957 554.284 161.016 554.381 161.208Z" fill="#C1DEE2"/>
<path fill-rule="evenodd" clip-rule="evenodd" d="M551.974 202.617C553.723 203.88 554.7 205.728 555.882 207.551C557.352 209.817 559.081 211.863 560.551 214.131C563.615 218.86 566.308 223.879 569.102 228.799C574.406 238.137 578.433 248.091 580.427 258.895C582.495 270.092 583.052 281.648 583.919 293.012C584.839 305.056 585.765 317.188 585.887 329.279C585.942 334.696 586.235 340.446 585.584 345.825C585.179 349.173 583.668 352.027 580.261 352C573.025 351.942 569.627 343.927 568.208 337.354C566.119 327.674 565.702 317.393 566.033 307.494C566.432 295.558 568.504 283.802 569.4 271.912C570.35 259.325 569.814 246.96 565.486 235.109C563.3 229.12 560.763 223.274 558.484 217.325C557.514 214.792 556.719 212.19 555.409 209.831C553.951 207.208 552.142 204.826 551 202C551.324 202.206 551.649 202.411 551.974 202.617Z" fill="#89C5CC"/>
<path fill-rule="evenodd" clip-rule="evenodd" d="M635.334 177.518C635.556 177.345 635.778 177.173 636 177C635.361 179.693 634.207 181.88 633.324 184.341C632.531 186.554 632.129 189.058 631.595 191.477C630.34 197.158 628.89 202.711 627.706 208.44C625.36 219.777 625.804 231.99 627.342 244.568C628.795 256.45 631.092 268.313 632.187 280.192C633.095 290.043 633.485 300.202 632.619 309.601C632.031 315.984 630.103 323.606 624.848 322.962C622.374 322.659 621.084 319.681 620.564 316.32C619.729 310.922 619.554 305.246 619.229 299.878C618.502 287.896 618.358 275.951 618.214 264.092C618.078 252.904 617.705 241.494 618.452 230.587C619.173 220.063 621.428 210.58 624.653 201.83C626.351 197.22 627.97 192.502 629.878 188.108C630.793 186.001 631.911 184.139 632.827 182.033C633.563 180.339 634.148 178.601 635.334 177.518Z" fill="#C1DEE2"/>
<path fill-rule="evenodd" clip-rule="evenodd" d="M554.209 237.302C555.166 235.695 557.272 240.993 557.593 241.66C557.457 241.328 557.321 240.997 557.184 240.667C559.083 243.825 560.821 247.113 561.901 250.734C562.97 254.319 563.888 257.977 564.891 261.587C566.774 268.361 569.202 274.943 570.907 281.778C572.569 288.438 572.988 294.986 572.585 301.875C572.167 309.035 571.911 316.306 572.399 323.462C572.632 326.88 573.743 330.064 574.504 333.354C575.266 336.648 575.866 339.986 576.767 343.239C576.974 342.815 577 344.232 577 344.339C576.994 345.152 576.881 345.833 576.619 346.604C575.948 348.586 574.691 350.269 572.778 350.816C569.322 351.803 566.112 348.659 564.998 345.339C563.399 340.575 562.517 335.311 561.755 330.304C561.057 325.713 560.891 321.094 561.099 316.44C561.508 307.261 563.169 298.202 563.618 289.026C564.107 279.036 562.128 269.649 560.471 259.925C559.673 255.239 558.91 250.598 557.356 246.134C556.727 244.326 555.907 242.731 555.048 241.061C554.558 240.112 553.569 238.418 554.209 237.302Z" fill="#C1DEE2"/>
<path fill-rule="evenodd" clip-rule="evenodd" d="M582.252 221.697C581.856 233.142 581.172 244.5 579.646 255.824C578.089 267.38 576.3 278.897 574.802 290.463C573.343 301.722 571.815 313.168 572.018 324.585C572.168 332.993 570.774 347.219 580.113 351.369C589.572 355.572 591.601 337.623 592.222 331.699C593.412 320.333 593.027 308.847 592.449 297.419C591.856 285.689 590.866 274.02 589.64 262.334C588.277 249.353 587.208 236.314 586.349 223.296C585.925 216.857 585.82 210.429 585.937 203.988C586.048 197.911 585.817 191.77 583.656 186C583.543 186.082 583.431 186.164 583.318 186.246" fill="#69A1AC"/>
<path fill-rule="evenodd" clip-rule="evenodd" d="M631.083 257.955C629.382 260.433 627.667 262.887 626.061 265.512C623.186 270.209 620.587 275.432 619.805 282.147C618.169 296.2 619.481 311.379 619.798 325.863C619.863 328.822 619.489 331.693 620.655 334.51C621.713 337.064 623.691 339.01 625.576 339C629.611 338.977 628.995 329.095 629.002 324.746C629.014 317.123 628.159 309.422 628.233 301.806C628.306 294.26 628.765 286.694 629.859 279.528C630.967 272.275 632.589 265.309 634.729 258.81C635.026 257.908 637.158 250.937 635.144 252.139" fill="#89C5CC"/>
<path fill-rule="evenodd" clip-rule="evenodd" d="M613.262 183C610.609 183 610.625 196.226 610.546 197.925C610.257 204.055 610.325 210.188 610.143 216.319C609.744 229.701 609.254 243.2 607.243 256.426C606.161 263.547 604.907 270.636 603.557 277.702C602.204 284.789 600.387 291.867 599.497 299.044C598.642 305.943 599.125 312.977 599.242 319.91C599.359 326.885 599.57 333.874 600.484 340.788C600.709 342.494 600.974 344.195 601.257 345.891C601.492 347.305 601.355 349.058 601.754 350.401C602.393 352.552 605.133 353.256 606.978 352.92C611.97 352.009 615.159 345.74 616.865 341.16C619.043 335.311 620.199 328.967 621.339 322.804C622.631 315.821 623.388 308.732 623.743 301.623C624.466 287.175 623.539 272.712 622.504 258.31C621.928 250.301 621.263 242.327 620.246 234.367C619.232 226.441 617.932 218.55 617.086 210.601C616.471 204.825 615.865 199.04 615.467 193.241C615.371 191.859 615.291 183 613.262 183Z" fill="#69A1AC"/>
<path fill-rule="evenodd" clip-rule="evenodd" d="M609.941 279.139C609.508 265.253 603.927 204.259 602.657 187.467C602.339 183.264 599.282 165.765 598.885 161C597.81 162.347 597.901 183.309 597.913 188.126C597.926 192.891 597.335 197.576 597.031 202.315C596.721 207.151 589.572 269.601 588.645 274.247C586.799 283.491 585.564 292.976 584.611 302.428C583.683 311.639 582.24 321.358 583.482 330.618C583.767 332.75 584.219 334.848 584.955 336.806C585.749 338.922 586.294 340.879 586.932 343.093C587.958 346.659 589.815 349.789 592.668 351.262C598.517 354.281 601.658 347.447 603.251 341.497C605.793 331.995 607.426 322.338 608.191 312.359C609.037 301.318 610.287 290.255 609.941 279.139Z" fill="#89C5CC"/>
<rect x="548" y="320" width="91" height="91" rx="2" fill="white"/>
<rect x="538" y="330" width="10" height="113" rx="2" fill="#C5CFD6"/>
<rect x="588" y="330" width="10" height="113" rx="2" fill="#C5CFD6"/>
<rect x="639" y="330" width="10" height="113" rx="2" fill="#C5CFD6"/>
<path fill-rule="evenodd" clip-rule="evenodd" d="M254.479 82.2443C261.002 86.1475 267.412 88.0333 270.42 87.2635C277.965 85.333 278.658 57.9351 272.821 47.1339C266.983 36.3328 236.974 31.625 235.462 53.0255C234.937 60.4529 238.078 67.0814 242.72 72.4901L234.397 111H258.573L254.479 82.2443Z" fill="#B28B67"/>
<path fill-rule="evenodd" clip-rule="evenodd" d="M275.103 51.9836C274.864 50.5836 274.279 49.0288 273.806 47.7043C273.197 45.9967 272.276 44.4571 271.262 43.0061C269.353 40.2744 267.063 37.8075 264.535 35.7601C259.916 32.0202 254.037 29.8631 248.256 30.5636C245.337 30.9173 242.503 32.0226 240.091 33.8624C237.912 35.5246 235.816 37.9716 232.995 38.1474C229.924 38.3385 227.11 35.6485 224.648 33.9871C221.872 32.1141 218.918 30.7493 215.674 30.2188C210.238 29.3304 205.132 31.1534 201.386 35.5805C197.399 40.2916 194.501 47.2003 197.119 53.4425C197.606 54.6028 198.232 55.581 199.13 56.3918C199.954 57.1353 201.213 57.9263 201.547 59.1142C201.902 60.3769 200.842 62.006 200.431 63.1454C199.842 64.7778 199.358 66.4913 199.53 68.2656C199.813 71.1795 201.657 73.9612 203.605 75.8765C205.587 77.8254 208.027 78.943 210.633 79.4582C212.372 79.8022 214.151 79.992 215.919 79.8628C216.797 79.7988 217.571 79.5567 218.422 79.3642C219.249 79.1769 219.711 79.395 220.413 79.8453C223.673 81.9373 227.178 82.7467 230.942 82.4356C234.119 82.1729 237.78 81.4087 240.372 79.248C243.25 76.8482 243.192 73.5391 242.515 70.0035C243.233 70.3565 245.218 70.5751 244.032 69.1681C243.562 68.6108 242.674 68.384 242.071 68.0563C241.369 67.6747 240.656 67.1814 240.111 66.5589C237.91 64.0454 240.133 58.93 242.9 58.0871C247.01 56.8347 247.93 62.6055 250.865 64.0982C252.552 64.9565 254.317 63.7834 255.581 62.5855C257.274 60.9809 258.428 58.8551 259.424 56.6918C260.245 54.9103 261.009 53.1038 261.845 51.3311C262.236 50.5033 263.588 48.1632 262.909 47.2272C265.853 46.6444 269.132 47.859 271.668 49.4517C272.716 50.1101 273.515 50.8361 274.074 51.9985C274.194 52.2475 274.454 52.9879 274.782 53.0183C275.391 53.0748 275.163 52.3354 275.103 51.9836" fill="#191847"/>
<path fill-rule="evenodd" clip-rule="evenodd" d="M219.427 204L256.18 330.755L273.466 425.925H290.817L273.497 204H219.427Z" fill="#D2B090"/>
<path fill-rule="evenodd" clip-rule="evenodd" d="M202.91 204C205.474 269.849 204.463 305.764 203.889 311.747C203.315 317.729 200.056 357.797 177.852 427.933H195.899C225.304 360.65 235.569 320.582 238.942 311.747C242.314 302.912 252.275 266.996 266.818 204H202.91Z" fill="#B28B67"/>
<path fill-rule="evenodd" clip-rule="evenodd" d="M218.638 204C228.198 247.617 244.732 317.24 268.242 412.87H293.619C295.494 314.715 287.52 250.113 273.712 204H218.638Z" fill="#69A1AC"/>
<path fill-rule="evenodd" clip-rule="evenodd" d="M202.781 204C205.293 269.849 198.784 334.722 178.622 413.895H205.698C235.157 347.616 256.272 283.063 270.703 204H202.781Z" fill="#89C5CC"/>
<path fill-rule="evenodd" clip-rule="evenodd" d="M175.28 440.987L176.198 426.17C176.238 425.53 176.861 425.092 177.488 425.225C186.185 427.076 198.182 422.912 198.182 422.912C210.258 431.473 227.669 435.4 233.79 436.575C234.972 436.801 235.73 437.993 235.402 439.15L234.028 444H198.182H177.271L175.28 440.987Z" fill="#191847"/>
<path fill-rule="evenodd" clip-rule="evenodd" d="M269.593 440.987L270.512 426.17C270.551 425.53 271.174 425.092 271.802 425.225C280.498 427.076 292.495 422.912 292.495 422.912C304.571 431.473 321.983 435.4 328.103 436.575C329.285 436.801 330.043 437.993 329.715 439.15L328.341 444H292.495H271.585L269.593 440.987Z" fill="#191847"/>
<path fill-rule="evenodd" clip-rule="evenodd" d="M355.15 159.034L318.773 175.032L330.389 189.934L357.632 169.016C371.24 166.513 377.551 164.363 376.565 162.565C375.733 161.049 374.186 160.964 372.761 160.885C371.651 160.824 370.615 160.767 370.049 160.041C368.757 158.383 371.947 153.26 375.181 148.529C378.416 143.798 375.384 143.969 373.609 144.535C367.675 147.842 361.522 152.675 355.15 159.034ZM192.281 183.526L171.709 179.439C157.758 216.264 149.44 236.444 146.756 239.979C144.788 242.571 132.652 249.247 124.437 252.813C121.14 254.244 121.848 257.034 122.815 257.927C128.915 263.558 134.586 261.584 140.759 259.436C142.546 258.814 144.375 258.177 146.269 257.706C151.171 256.487 152.663 259.011 154.073 261.397C155.321 263.509 156.505 265.513 159.935 264.713C159.779 264.039 159.587 263.284 159.38 262.469C158.043 257.201 156.072 249.431 158.997 244.917C160.498 242.6 171.593 222.137 192.281 183.526Z" fill="#B28B67"/>
<path fill-rule="evenodd" clip-rule="evenodd" d="M248.194 102.361L256.875 100.869C275.782 119.237 283.498 163.365 296.099 169.207C308.013 174.729 324.901 169.385 344.975 162.169L351.123 175.924C332.883 195.686 294.026 212.381 278.276 202.85C253.094 187.612 247.281 133.186 248.194 102.361Z" fill="#DB2721"/>
<path fill-rule="evenodd" clip-rule="evenodd" d="M210.352 211.61C210.352 211.61 262.562 211.61 287.162 211.61C290.672 211.61 290.01 206.534 289.503 203.973C283.647 174.416 260.789 142.554 260.789 100.479L238.633 97C220.308 126.515 213.97 162.855 210.352 211.61Z" fill="#DDE3E9"/>
<path fill-rule="evenodd" clip-rule="evenodd" d="M237.457 97H237.204C187.509 127.668 157.476 175.207 147.105 239.617L163.206 242.775C173.871 230.333 187.032 209.969 202.691 181.684C197.886 198.722 194.379 216.197 193.285 232.722H262.426C275.811 198.847 245.977 97 245.977 97H241.203H237.457Z" fill="#FF4133"/>
<path fill-rule="evenodd" clip-rule="evenodd" d="M484.065 82.2443C477.589 86.1475 471.226 88.0333 468.24 87.2635C460.75 85.333 460.062 57.9351 465.857 47.1339C471.651 36.3328 501.442 31.625 502.943 53.0255C503.464 60.4529 500.346 67.0814 495.738 72.4901L504 111H480L484.065 82.2443Z" fill="#D2B090"/>
<path fill-rule="evenodd" clip-rule="evenodd" d="M479.536 34.6853C482.699 34.1665 491.216 33.8099 492.787 33.8101C493.79 33.8101 494.878 34.0394 495.473 33.1178C495.959 32.3631 495.781 31.0867 495.926 30.2109C496.095 29.1935 496.335 28.1892 496.577 27.1874C497.267 24.3369 498.31 21.625 499.769 19.0788C502.507 14.3019 506.519 10.5601 511.583 8.38278C517.176 5.97866 523.504 5.42817 529.52 5.91581C535.957 6.43752 541.784 8.56259 547.862 10.5624C553.654 12.4681 559.72 13.2182 565.778 12.2876C571.882 11.35 576.493 8.04203 581.641 4.90232C586.911 1.68801 592.934 -0.414264 599.165 0.0689985C604.98 0.520259 610.341 2.92161 615.15 6.12947C619.649 9.13081 623.362 12.7418 625.458 17.824C627.713 23.2909 627.711 29.2918 624.003 34.1233C618.628 41.1265 608.65 42.9376 600.349 42.7575C595.547 42.6537 590.832 41.7772 586.299 40.1828C580.253 38.0564 575.029 34.4523 569.373 31.528C566.719 30.1558 563.975 29.0288 561.099 28.217C558.309 27.4289 555.56 27.0675 553.034 28.7533C550.361 30.5367 547.966 32.2885 544.908 33.4049C541.974 34.476 538.867 35.075 535.742 35.0509C529.661 35.0039 523.667 33.1093 517.761 31.8402C512.946 30.8056 507.793 29.7743 502.883 30.769C500.834 31.1841 497.841 32.041 497.101 34.1702C509.556 36.4274 514.447 51.8302 510.936 63.1372C509.041 69.24 497.65 76.3742 493.221 73.1658C490.415 71.1333 492.119 68.4648 493.221 66.7033C495.332 63.3299 496.055 58.9967 492.148 56.648C488.778 54.6224 485.235 59.4327 485.168 59.4274C484.242 59.3544 476.24 54.8285 470.726 48.2241C465.287 48.5466 464.461 44.96 465.76 42.0269C467.059 39.0938 475.166 35.4024 479.536 34.6853Z" fill="#191847"/>
<path fill-rule="evenodd" clip-rule="evenodd" d="M513 204L476.745 331.759L450.293 425.925H431L459.109 204H513Z" fill="#191847"/>
<path fill-rule="evenodd" clip-rule="evenodd" d="M522.696 204C523.534 269.849 526.394 305.764 527.274 311.747C528.155 317.729 541.468 355.789 567.214 425.925H547.227C514.451 358.641 496.154 320.582 492.337 311.747C488.521 302.912 476.741 266.996 459 204H522.696Z" fill="#2F3676"/>
<path fill-rule="evenodd" clip-rule="evenodd" d="M569 444L568 422.912L547 422.912C532.064 433.456 508 439.983 508 439.983V444H546L559 441.992V444H569Z" fill="#191847"/>
<path fill-rule="evenodd" clip-rule="evenodd" d="M453 444L452 422.912L431 422.912C416.064 433.456 392 439.983 392 439.983V444H430L443 441.992V444H453Z" fill="#191847"/>
<path fill-rule="evenodd" clip-rule="evenodd" d="M386.517 153.246L426 158.66L418.916 176.444L386.879 163.675C373.07 165.044 366.393 164.715 366.847 162.686C367.23 160.975 368.698 160.458 370.05 159.982C371.103 159.612 372.086 159.266 372.431 158.399C373.22 156.421 368.731 152.319 364.307 148.611C359.883 144.903 362.852 144.221 364.719 144.276C371.353 145.839 378.619 148.829 386.517 153.246ZM578.602 250.747C575.672 244.77 550.03 167.848 550.03 167.848L528.133 167.93C528.133 167.93 564.149 249.415 565.692 253.258C567.696 258.251 564.292 265.505 561.984 270.424C561.627 271.185 561.296 271.89 561.015 272.522C564.218 273.963 565.756 272.221 567.378 270.385C569.21 268.312 571.149 266.117 575.712 268.252C577.475 269.076 579.143 270.051 580.773 271.004C586.403 274.294 591.575 277.316 598.611 272.952C599.726 272.26 600.949 269.654 597.995 267.618C590.638 262.546 580.035 253.669 578.602 250.747Z" fill="#D2B090"/>
<path fill-rule="evenodd" clip-rule="evenodd" d="M490.051 98.0267L472.906 99.175C468.683 137.581 445.684 161.839 394.189 153.627L387.348 203.084C435.477 209.338 477.687 189.966 486.338 137.515C488.577 123.938 490.345 109.807 490.051 98.0267Z" fill="#AFB9C5"/>
<path fill-rule="evenodd" clip-rule="evenodd" d="M575.598 240.786C563.695 177.111 538.57 127.849 500.224 93H498.579H498.523L498.509 93.016L472.532 98.9972C472.532 130.368 465.59 153.808 458.916 176.344C456.034 186.075 453.202 195.639 451 205.599H521.156C522.145 217.011 522.752 228.74 523.068 240.786H575.598Z" fill="#C5CFD6"/>
<path fill-rule="evenodd" clip-rule="evenodd" d="M521.156 205.599C519.144 182.366 515.551 160.449 509.612 139.847C510.914 161.879 511.275 189.21 506.897 205.599H521.156Z" fill="black" fill-opacity="0.1"/>
</svg>
